<?xml version="1.0" encoding="UTF-8" standalone="no"?>
<svg
   width="350"
   height="350"
   viewBox="0 0 92.604165 92.604169"
   version="1.1"
   id="svg5"
   inkscape:version="1.1.1 (c3084ef, 2021-09-22)"
   sodipodi:docname="circeBarChart1-project.svg"
   x="0"
   y="0"
   preserveAspectRatio="xMidYMid"
   xmlns:inkscape="http://www.inkscape.org/namespaces/inkscape"
   xmlns:sodipodi="http://sodipodi.sourceforge.net/DTD/sodipodi-0.dtd"
   xmlns="http://www.w3.org/2000/svg"
   xmlns:svg="http://www.w3.org/2000/svg">
  <sodipodi:namedview
     id="namedview7"
     pagecolor="#ffffff"
     bordercolor="#666666"
     borderopacity="1.0"
     inkscape:pageshadow="2"
     inkscape:pageopacity="0.0"
     inkscape:pagecheckerboard="0"
     inkscape:document-units="mm"
     showgrid="false"
     units="px"
     inkscape:zoom="0.93539562"
     inkscape:cx="289.18245"
     inkscape:cy="226.10754"
     inkscape:window-width="1280"
     inkscape:window-height="747"
     inkscape:window-x="0"
     inkscape:window-y="25"
     inkscape:window-maximized="1"
     inkscape:current-layer="layer1"
     inkscape:snap-global="true"
     inkscape:snap-bbox="false" />
  <defs
     id="defs2" />
  <g
     inkscape:label="Layer 1"
     inkscape:groupmode="layer"
     id="layer1">
    <path
       id="path1"
       style="fill:none;stroke:#cdcdcd;stroke-width:0.264583;stroke-linecap:round;stop-color:#000000"
       d="M 52.700608,9.400608 A 38.824722,39.249008 8 0 1 85.405245,53.630624 38.824722,39.249008 8 0 1 41.495957,87.094307 38.824722,39.249008 8 0 1 8.4920076,42.964288" />
    <path
       id="bar1"
       style="fill: none; fill-opacity: 1; stroke: rgb(0, 122, 0); stroke-width: 20.3769; stroke-linecap: round; stroke-miterlimit: 4; stroke-dasharray: 689; stroke-dashoffset: 689; stroke-opacity: 1; stop-color: rgb(0, 0, 0); opacity: 0;"
       d="M 180.67119 33.968505 A 146.73911 148.34271 0 0 1 324.20412 182.2758 A 146.73911 148.34271 0 0 1 177.46501 330.61851 A 146.73911 148.34271 0 0 1 30.749769 184.95102 "
       transform="scale(0.26458333)"
       opacity="0" />
    <path
       id="path2"
       style="fill:none;stroke:#cdcdcd;stroke-width:0.264583;stroke-linecap:round;stop-color:#000000"
       d="M 51.830441,15.588858 A 33,33 0 0 1 79.636756,52.819868 33,33 0 0 1 42.365198,80.906001 33,33 0 0 1 14.222669,44.05536" />
    <path
       id="bar2"
       style="opacity: 0; fill: none; fill-opacity: 1; stroke: rgb(0, 122, 0); stroke-width: 20.3769; stroke-linecap: round; stroke-miterlimit: 4; stroke-dasharray: 584; stroke-dashoffset: 584; stroke-opacity: 1; stop-color: rgb(0, 0, 0);"
       d="M 179.60412 57.569735 A 124.72441 124.72441 0 0 1 302.18942 182.2758 A 124.72441 124.72441 0 0 1 177.46501 307.00021 A 124.72441 124.72441 0 0 1 52.750931 183.88084 "
       transform="scale(0.26458333)"
       opacity="0" />
    <path
       id="path3"
       style="fill:none;stroke:#cdcdcd;stroke-width:0.264583;stroke-linecap:round;stop-color:#000000"
       d="M 51.275757,21.574347 A 26.999999,26.999999 0 0 1 73.695657,51.984611 26.999999,26.999999 0 0 1 43.200745,74.964176 26.999999,26.999999 0 0 1 20.131848,45.171604" />
    <path
       id="bar3"
       style="opacity: 0; fill: none; fill-opacity: 1; stroke: rgb(0, 0, 255); stroke-width: 20.3769; stroke-linecap: round; stroke-miterlimit: 4; stroke-dasharray: 477; stroke-dashoffset: 477; stroke-opacity: 1; stop-color: rgb(0, 0, 0);"
       d="M 178.5337 80.234151 A 102.04724 102.04724 0 0 1 279.51226 182.2758 A 102.04724 102.04724 0 0 1 177.46501 284.32304 A 102.04724 102.04724 0 0 1 75.452853 184.95147 "
       transform="scale(0.26458333)"
       opacity="0" />
    <path
       id="path4"
       style="fill:none;stroke:#cdcdcd;stroke-width:0.264583;stroke-linecap:round;stop-color:#000000"
       d="M 50.440131,27.517131 A 21,21 0 0 1 67.753665,51.149064 21,21 0 0 1 44.0354,69.022058 21,21 0 0 1 26.04769,46.288025" />
    <path
       id="bar4"
       style="opacity: 0; fill: none; fill-opacity: 1; stroke: rgb(0, 255, 255); stroke-width: 20.3769; stroke-linecap: round; stroke-miterlimit: 4; stroke-dasharray: 369; stroke-dashoffset: 369; stroke-opacity: 1; stop-color: rgb(0, 0, 0);"
       d="M 179.60434 102.93456 A 79.370079 79.370079 0 0 1 256.83509 182.2758 A 79.370079 79.370079 0 0 1 177.46501 261.64588 A 79.370079 79.370079 0 0 1 98.140048 184.95148 "
       transform="scale(0.26458333)"
       opacity="0" />
    <path
       id="path5"
       style="fill:none;stroke:#cdcdcd;stroke-width:0.264583;stroke-linecap:round;stop-color:#000000"
       d="M 49.605917,33.462651 A 14.999999,14.999999 0 0 1 61.811739,50.314633 14.999999,14.999999 0 0 1 44.870119,63.081055 14.999999,14.999999 0 0 1 32.050438,46.561789" />
    <path
       id="bar5"
       style="opacity: 0; fill: none; fill-opacity: 1; stroke: rgb(255, 0, 255); stroke-width: 20.3769; stroke-linecap: round; stroke-miterlimit: 4; stroke-dasharray: 262; stroke-dashoffset: 262; stroke-opacity: 1; stop-color: rgb(0, 0, 0);"
       d="M 179.60453 125.62327 A 56.692913 56.692913 0 0 1 234.15793 182.2758 A 56.692913 56.692913 0 0 1 177.46501 238.96871 A 56.692913 56.692913 0 0 1 120.83527 184.95133 "
       transform="scale(0.26458333)"
       opacity="0" />
  </g>
  <text
     id="value1"
     x="33.609621887207034"
     y="16.827935791015626"
     style="fill: rgb(119, 119, 119); fill-opacity: 1; font-size: 4px; stroke: rgb(0, 0, 0); stroke-width: 0.2; stroke-opacity: 0; font-style: normal; font-weight: normal; text-anchor: start; dominant-baseline: auto; opacity: 0; stroke-dashoffset: 0;"
     transform="matrix(0.9999922513961792,-0.003964863251894713,0.003964863251894713,0.9999922513961792,0.46656666315487966,-5.70695590922572)"
     opacity="0"
     font-family="sans-serif">0</text>
  <text
     id="value2"
     x="33.753879089355465"
     y="14.216990184783937"
     style="fill: rgb(119, 119, 119); fill-opacity: 1; font-size: 4px; stroke: rgb(0, 0, 0); stroke-width: 1; stroke-opacity: 0; font-style: normal; font-weight: normal; text-anchor: start; dominant-baseline: auto; opacity: 0; stroke-dashoffset: 0;"
     opacity="0"
     font-family="sans-serif">0</text>
  <text
     id="value3"
     x="33.753879089355465"
     y="14.216990184783937"
     style="fill: rgb(119, 119, 119); fill-opacity: 1; font-size: 4px; stroke: rgb(0, 0, 0); stroke-width: 1; stroke-opacity: 0; font-style: normal; font-weight: normal; text-anchor: start; dominant-baseline: auto; opacity: 0; stroke-dashoffset: 0;"
     opacity="1"
     font-family="sans-serif">0</text>
  <text
     id="value4"
     x="33.753879089355465"
     y="14.216990184783937"
     style="fill: rgb(119, 119, 119); fill-opacity: 1; font-size: 4px; stroke: rgb(0, 0, 0); stroke-width: 1; stroke-opacity: 0; font-style: normal; font-weight: normal; text-anchor: start; dominant-baseline: auto; opacity: 0; stroke-dashoffset: 0;"
     opacity="1"
     font-family="sans-serif">0</text>
  <text
     id="value5"
     x="33.753879089355465"
     y="14.216990184783937"
     style="fill: rgb(119, 119, 119); fill-opacity: 1; font-size: 4px; stroke: rgb(0, 0, 0); stroke-width: 1; stroke-opacity: 0; font-style: normal; font-weight: normal; text-anchor: start; dominant-baseline: auto; opacity: 0; stroke-dashoffset: 0;"
     opacity="1"
     font-family="sans-serif">0</text>
  </svg>
